<?xml version="1.0" encoding="UTF-8"?>
<!DOCTYPE svg PUBLIC "-//W3C//DTD SVG 1.1//EN" "http://www.w3.org/Graphics/SVG/1.1/DTD/svg11.dtd">
<!-- Creator: CorelDRAW 2021 (64 Bit) -->
<svg xmlns="http://www.w3.org/2000/svg" xml:space="preserve" width="32.6473mm" height="32.529mm" version="1.1" style="shape-rendering:geometricPrecision; text-rendering:geometricPrecision; image-rendering:optimizeQuality; fill-rule:evenodd; clip-rule:evenodd"
viewBox="0 0 230.06 229.23"
 xmlns:xlink="http://www.w3.org/1999/xlink"
 xmlns:xodm="http://www.corel.com/coreldraw/odm/2003">
 <defs>
  <style type="text/css">
   <![CDATA[
    .str0 {stroke:#FEFEFE;stroke-width:3.73;stroke-miterlimit:22.9256}
    .fil0 {fill:#FEFEFE}
   ]]>
  </style>
 </defs>
 <g id="Camada_x0020_1">
  <metadata id="CorelCorpID_0Corel-Layer"/>
  <g id="_2350028750608">
   <path class="fil0 str0" d="M77.01 153.1l3.79 -14.34c0.77,-2.69 3.69,-12.51 3.73,-14.4 1.22,0.82 20.23,19.18 20.78,21.22 -2.05,0.17 -5.04,1.23 -7.08,1.77l-13.79 3.89c-2.16,0.59 -5.38,1.69 -7.42,1.86zm151.18 -121.5l0 3.74c-0.36,4.99 -2.12,9.93 -5.17,14 -3.39,4.53 -90.62,91.02 -99.93,100.33 -1.66,1.66 -2.72,3.21 -5.14,4.14l-21.05 5.91c-3.42,0.96 -25.72,7.51 -28.73,7.51 -2.89,0 -5.3,-2.41 -5.3,-5.3 0,-2.68 1.11,-5.54 1.68,-7.61l9.87 -35.66c2.35,-8 0.87,-6.51 6.25,-11.88 8.87,-8.87 96.51,-97.41 100.58,-100.11 1,-0.67 1.86,-1.34 2.97,-1.9 1.01,-0.51 2.03,-0.95 3.06,-1.36 6.78,-2.75 16.32,-1.74 22.28,2.11 3.64,2.35 12.88,11.6 15.2,15.3 2.04,3.24 3.17,6.96 3.44,10.77zm-111.73 108.35l-26.08 -26.3 81.78 -82 26.52 26.3 -82.22 82zm63.88 -116.71c5.46,-3.69 13.04,-18.79 29.17,-2.65 4.69,4.7 7.18,7.2 7.18,14.48 0,3.16 -2.19,6.8 -3.86,8.52 -1.67,1.72 -4.56,4.9 -6.31,6.07l-26.19 -26.42z"/>
   <path class="fil0 str0" d="M1.86 50.54l0 149.86c0,14.74 13.12,26.97 30.5,26.97l152.95 0c19.73,0 31.39,-12.18 31.39,-31.83l0 -45.09c0,-2.22 -0.42,-3.83 -1.48,-5.15 -2.52,-3.17 -7.2,-2.74 -9.15,0.27 -1.06,1.64 -0.88,3.49 -0.86,6.21 0.04,9.43 0,18.86 0,28.29 0,16.98 3.37,35.81 -20.78,35.81l-150.74 0c-6.77,0 -10.28,-1.01 -14.16,-3.97 -3,-2.28 -6.18,-7.16 -6.18,-12.39l0 -148.97c0,-4.99 4.24,-11.14 9.42,-13.57 5.55,-2.6 13.62,-1.9 21.52,-1.9l34.94 0.02c2.32,0.02 3.24,-0.18 4.5,-1.25 4.44,-3.74 1.4,-10.27 -4.52,-10.27l-47.3 0c-9.43,0 -15.81,2.9 -20.89,7.41 -4.3,3.82 -9.17,11.64 -9.17,19.56z"/>
  </g>
 </g>
</svg>
