<?xml version="1.0" encoding="UTF-8"?>
<!DOCTYPE svg PUBLIC "-//W3C//DTD SVG 1.1//EN" "http://www.w3.org/Graphics/SVG/1.1/DTD/svg11.dtd">
<!-- Creator: CorelDRAW 2021 (64 Bit) -->
<svg xmlns="http://www.w3.org/2000/svg" xml:space="preserve" width="23.625mm" height="32mm" version="1.1" style="shape-rendering:geometricPrecision; text-rendering:geometricPrecision; image-rendering:optimizeQuality; fill-rule:evenodd; clip-rule:evenodd"
viewBox="0 0 100.69 136.39"
 xmlns:xlink="http://www.w3.org/1999/xlink"
 xmlns:xodm="http://www.corel.com/coreldraw/odm/2003">
 <defs>
  <style type="text/css">
   <![CDATA[
    .fil0 {fill:#FEFEFE}
   ]]>
  </style>
 </defs>
 <g id="Camada_x0020_1">
  <metadata id="CorelCorpID_0Corel-Layer"/>
  <g id="_2350028748784">
   <path class="fil0" d="M51.41 108.42c0,-12.13 9.09,-21.04 20.78,-21.04 10.61,0 20.25,9.03 20.25,19.45l0 1.86c0,25.67 -41.02,25.64 -41.02,-0.27zm-36.23 -67.4l64.2 0 -3.06 38.35c-13.25,0.01 -19.26,2.05 -26.04,9.8 -6.66,7.61 -8.32,15.77 -5.53,27.77 -8.54,0 -19.51,1.71 -22.8,-3.57 -1.72,-2.76 -2.48,-18.77 -2.77,-23.6 -0.93,-15.89 -3.57,-33.19 -4,-48.74zm-1.07 -16.52l66.33 0c4.56,0 5.33,4.21 5.33,8.52l-76.99 0c0.35,-4.15 0.63,-8.52 5.33,-8.52zm21.31 -9.32c0,-8.87 7.8,-7.19 16.78,-7.19 6.88,0 6.93,4.8 6.93,8.52l-23.71 0 0 -1.33zm-7.99 -1.86l0 3.2 -15.18 0c-9.2,0 -12.25,11.81 -12.25,21.04 0,4.35 5.77,3.02 6.72,3.67 0.8,0.55 2.51,26.86 2.7,29 1.19,12.85 2.04,26.04 3.17,39.19 1.28,14.93 10.76,15.78 26.57,15.78 14.78,0 7.41,-0.3 15.56,5.48 6.35,4.51 10.66,5.71 18.8,5.71 14.41,0 27.17,-13.68 27.17,-28.5 0,-11 -8.47,-23.96 -16.52,-25.84l3.44 -41.03c10.09,0 6.96,-5.41 5.62,-13.32 -0.97,-5.76 -4.44,-11.18 -10.93,-11.18l-14.92 0c0,-9.05 -5.15,-16.52 -13.05,-16.52l-13.59 0c-6.91,0 -13.32,6.42 -13.32,13.32z"/>
   <path class="fil0" d="M59.94 99.36c0,4.23 4.23,5.69 6.13,8.52 -2.1,3.14 -6.13,4.09 -6.13,8.52 0,1.92 1.94,3.46 4,3.46 3.3,0 5.7,-4.59 7.99,-6.13 2.86,1.92 4.49,6.13 8.52,6.13 2.79,0 4.57,-3.74 2.88,-6.33 -1.55,-2.37 -4.16,-3.59 -5.54,-5.66 1.57,-2.35 6.37,-4.94 6.25,-8.21 -0.18,-5.18 -5.24,-4.46 -8.19,-1.45 -4.62,4.7 -3.08,4.8 -7.59,0.27 -1.34,-1.35 -2.19,-2.84 -4.54,-2.73 -1.91,0.09 -3.78,1.76 -3.78,3.6z"/>
  </g>
 </g>
</svg>
